<?xml version="1.0" encoding="utf-8"?>
<!-- Generator: Adobe Illustrator 16.0.4, SVG Export Plug-In . SVG Version: 6.00 Build 0)  -->
<!DOCTYPE svg PUBLIC "-//W3C//DTD SVG 1.1//EN" "http://www.w3.org/Graphics/SVG/1.1/DTD/svg11.dtd">
<svg version="1.1" id="Layer_1" xmlns="http://www.w3.org/2000/svg" xmlns:xlink="http://www.w3.org/1999/xlink" x="0px" y="0px"
	 width="244px" height="344px" viewBox="0 0 244 344" enable-background="new 0 0 244 344" xml:space="preserve">
<g>
	<rect x="72.448" y="46.399" fill="#FFFFFF" width="17.5" height="9.5"/>
	<path fill="#5D2A2B" stroke="#000000" stroke-width="2" stroke-miterlimit="10" d="M195.91,186.745
		c-4.161-11.848-15.453-20.367-28.703-20.367c-11.076,0-20.781,5.955-26.101,14.828c-3.054-3.143-8.547-7.158-16.683-7.158
		c-8.029,0-13.482,3.912-16.559,7.033c-5.334-8.803-15.001-14.703-26.025-14.703c-13.251,0-24.543,8.52-28.703,20.367h-17.85v10.051
		h16.135c0,16.771,13.646,30.416,30.418,30.416c13.502,0,24.971-8.844,28.932-21.041c0.049-0.094,0.103-0.184,0.141-0.283
		l3.186-8.539c-2.446-1.352-3.957-3.172-3.957-5.182c0-1.043,5.525-10.713,14.283-10.713c8.759,0,14.481,9.664,14.481,10.713
		c0,2.01-1.511,3.83-3.957,5.182l3.187,8.539c0.038,0.102,0.092,0.191,0.141,0.287c3.964,12.195,15.432,21.037,28.932,21.037
		c16.771,0,30.417-13.645,30.417-30.416h15.143v-10.051H195.91z M81.84,219.806c-12.689,0-23.012-10.322-23.012-23.01
		c0-12.689,10.322-23.012,23.012-23.012c12.688,0,23.012,10.322,23.012,23.012C104.852,209.483,94.528,219.806,81.84,219.806z
		 M167.207,219.806c-12.688,0-23.012-10.322-23.012-23.01c0-12.689,10.323-23.012,23.012-23.012s23.012,10.322,23.012,23.012
		C190.219,209.483,179.896,219.806,167.207,219.806z"/>
	<g>
		<polygon fill="#F3D8C4" points="214.246,173.285 218.901,193.681 212.181,217.377 204.434,234.893 192.04,239.422 
			196.876,175.709 		"/>
		
			<path fill="#F3D8C4" stroke="#000000" stroke-width="3" stroke-linecap="round" stroke-linejoin="round" stroke-miterlimit="10" d="
			M213.558,215.355c0.081,4.584,7.042,13.037,6.459,18.537s-5.317,4.916-8.417,4.166s-7.166-3.166-7.166-3.166"/>
		
			<path fill="#F3D8C4" stroke="#000000" stroke-width="3" stroke-linecap="round" stroke-linejoin="round" stroke-miterlimit="10" d="
			M214.892,175.809c0,0,8.166,0.711,11.312,3.855s-3.354,10.145-7.271,18.312c-3.917,8.166-6.206,18.998-6.373,26.832"/>
	</g>
	<g>
		
			<polygon fill="#F3D8C4" stroke="#000000" stroke-width="2" stroke-linecap="round" stroke-linejoin="round" stroke-miterlimit="10" points="
			36.584,165.666 28.775,189 34.301,209.746 36.584,232.158 52.176,233.666 53.631,169.787 		"/>
		
			<path fill="#F3D8C4" stroke="#000000" stroke-width="3" stroke-linecap="round" stroke-linejoin="round" stroke-miterlimit="10" d="
			M35.27,214.355c-0.081,4.584-7.042,13.037-6.459,18.537c0.583,5.498,5.317,4.916,8.417,4.166s7.166-3.166,7.166-3.166"/>
		
			<path fill="#F3D8C4" stroke="#000000" stroke-width="3" stroke-linecap="round" stroke-linejoin="round" stroke-miterlimit="10" d="
			M33.936,174.809c0,0-8.166,0.711-11.312,3.855s3.354,10.145,7.271,18.312c3.917,8.166,6.206,18.998,6.373,26.832"/>
	</g>
	<path fill="#F5DFBD" stroke="#000000" stroke-width="4" stroke-linejoin="round" stroke-miterlimit="10" d="M216.879,161.443
		c0-12.125-1.858-19.416-12.193-24.176c2.891-6.748-0.079-26.682-5.014-36.873c-4.935-10.189-36.993-33.094-74.693-33.475h-1.027
		c-37.7,0.381-69.759,23.285-74.693,33.475c-4.935,10.191-7.904,30.125-5.014,36.873c-10.335,4.76-12.193,12.051-12.193,24.176
		c0,4.961,1.208,9.637,3.336,13.762c3,10.254,8.997,32.496,8.997,46.492c0,13.598-1.062,27.98-1.638,34.795
		c-0.233,1.311-0.362,2.658-0.362,4.037c0,10.273,6.786,18.961,16.119,21.828c3.565,1.715,18.29,8.875,23.548,12.672
		c5.086,3.674,14.174,13.432,16.826,16.318c0.232,0.268,0.473,0.529,0.719,0.789c0.017,0.018,0.029,0.031,0.029,0.031
		c5.518,5.768,14.52,9.529,24.696,9.529c0.048,0,0.096-0.002,0.144-0.004c0.048,0.002,0.096,0.004,0.144,0.004
		c10.177,0,19.179-3.762,24.696-9.529c0,0,0.013-0.014,0.029-0.031c0.246-0.26,0.486-0.521,0.719-0.789
		c2.652-2.887,11.74-12.645,16.826-16.318c5.258-3.797,19.982-10.957,23.548-12.672c9.333-2.867,16.119-11.555,16.119-21.828
		c0-1.379-0.129-2.727-0.362-4.037c-0.576-6.814-1.638-21.197-1.638-34.795c0-13.996,5.997-36.238,8.997-46.492
		C215.671,171.08,216.879,166.404,216.879,161.443z"/>
	<path fill="#F1C09D" d="M196.141,193.259c-4.161-11.848-15.453-20.367-28.703-20.367c-11.076,0-20.781,5.955-26.101,14.828
		c-3.054-3.143-8.547-7.158-16.683-7.158c-8.029,0-13.482,3.912-16.559,7.033c-5.334-8.803-15.001-14.703-26.025-14.703
		c-13.251,0-24.543,8.52-28.703,20.367h-17.85v10.051h16.135c0,16.771,13.646,30.416,30.418,30.416
		c13.502,0,24.971-8.844,28.932-21.041c0.049-0.094,0.103-0.184,0.141-0.283l3.186-8.539c-2.446-1.352-3.957-3.172-3.957-5.182
		c0-1.043,5.525-10.713,14.283-10.713c8.759,0,14.481,9.664,14.481,10.713c0,2.01-1.511,3.83-3.957,5.182l3.187,8.539
		c0.038,0.102,0.092,0.191,0.141,0.287c3.964,12.195,15.432,21.037,28.932,21.037c16.771,0,30.417-13.645,30.417-30.416h15.143
		v-10.051H196.141z M82.07,226.319c-12.689,0-23.012-10.322-23.012-23.01c0-12.689,10.322-23.012,23.012-23.012
		c12.688,0,23.012,10.322,23.012,23.012C105.082,215.997,94.759,226.319,82.07,226.319z M167.438,226.319
		c-12.688,0-23.012-10.322-23.012-23.01c0-12.689,10.323-23.012,23.012-23.012s23.012,10.322,23.012,23.012
		C190.449,215.997,180.126,226.319,167.438,226.319z"/>
	<ellipse fill="#00A5BB" cx="82.218" cy="197.344" rx="22.937" ry="23.441"/>
	<ellipse fill="#00A5BB" cx="167.385" cy="197.344" rx="22.937" ry="23.441"/>
	<path fill="#F9D662" stroke="#000000" stroke-width="4" stroke-linejoin="round" stroke-miterlimit="10" d="M124.188,73.367
		c-25.542,0-55.208,5.332-70.745,21.801C49.3,87.908,46.913,78.066,46.913,69c0-26.787,20.777-48.5,46.408-48.5
		c10.131,0,19.496,3.402,27.127,9.16c7.3-6.049,15.566-8.742,23.349-6.729c8.674,2.244,15.035,9.895,18.238,20.34
		c22.469,0.467,40.55,19.635,40.55,43.227c0,5.65-1.048,9.619-2.933,14.566C190.146,81.199,149.729,73.367,124.188,73.367z"/>
	<path fill="#F1C09D" d="M139.044,314.137c0.246-0.26,0.486-0.521,0.719-0.789c2.652-2.887,11.74-12.645,16.826-16.318
		c5.258-3.797,19.982-10.957,23.548-12.672c9.333-2.867,16.119-11.555,16.119-21.828c0-1.379-0.129-2.727-0.362-4.037
		c-0.576-6.814-1.638-21.197-1.638-34.795c0-13.996,5.997-36.238,8.997-46.492c2.128-4.125,3.336-8.801,3.336-13.762
		c0-12.125-1.858-19.416-12.193-24.176c2.4-5.604,0.758-20.294-2.692-30.953c1.629-4.459,2.536-8.258,2.536-13.489
		c0-23.592-18.081-42.76-40.55-43.227c-3.203-10.445-9.564-18.096-18.238-20.34c-0.572-0.148-1.148-0.263-1.727-0.361
		c-1.071,0.408-2.138,0.865-3.192,1.415c-1.075-0.546-2.181-1.034-3.299-1.494c-5.187,0.712-10.364,3.219-15.131,7.168
		c-7.388-5.574-16.402-8.931-26.161-9.14C65.64,34.023,50.567,53.145,50.567,75.957c0,6.832,1.356,14.103,3.797,20.378
		c-1.578,1.732-2.736,3.327-3.396,4.689c-4.935,10.191-7.904,30.125-5.014,36.873c-10.335,4.76-12.193,12.051-12.193,24.176
		c0,2.212,0.253,4.362,0.707,6.438l-1.732,5.178c-2.405,0.319-8.162,1.337-10.845,4.019c-2.724,2.724-0.155,6.974,3.098,12.354
		c1.369,2.266,2.785,4.608,3.979,7.099c1.299,2.707,2.456,5.836,3.415,9.118l0.905,3.399l0.628,6.164
		c-0.494,1.64-1.487,3.631-2.531,5.712c-1.94,3.87-3.947,7.872-3.595,11.194c0.219,2.064,0.997,3.58,2.313,4.508
		c0.029,0.021,0.062,0.033,0.092,0.053c1.488-0.729,3.6-0.048,3.557,0.973c0.022,0,0.045,0.004,0.068,0.004
		c1.29,0,2.57-0.251,3.616-0.504c1.571-0.381,3.345-1.15,4.769-1.848c0.342,0.514,0.736,0.974,1.231,1.322
		c0.685,0.482,1.459,0.748,2.26,0.891c-0.361,7.871-0.89,14.828-1.24,18.975c-0.233,1.311-0.362,2.658-0.362,4.037
		c0,10.273,6.786,18.961,16.119,21.828c3.565,1.715,18.29,8.875,23.548,12.672c5.086,3.674,14.174,13.432,16.826,16.318
		c0.232,0.268,0.473,0.529,0.719,0.789c0.017,0.018,0.029,0.031,0.029,0.031c5.291,5.531,13.79,9.207,23.453,9.501
		c5.76-1.591,10.705-4.448,14.227-8.13C139.015,314.168,139.027,314.154,139.044,314.137z"/>
	<path fill="#F1C09D" d="M108.368,159.108c-0.2,0.488-0.44,0.908-0.664,1.357l-0.733,1.238c-0.248,0.408-0.525,0.766-0.786,1.15
		c-0.27,0.371-0.521,0.773-0.805,1.121c-0.554,0.717-1.134,1.389-1.724,2.047c-0.6,0.641-1.206,1.27-1.838,1.854l-1.092,1.01
		l-2.713-0.641c-1.675-0.395-3.318-0.879-4.979-1.312l-2.466-0.725c-0.82-0.246-1.648-0.471-2.46-0.74
		c-1.626-0.531-3.271-1.014-4.882-1.588c-1.613-0.568-3.242-1.092-4.84-1.705c-1.601-0.602-3.213-1.172-4.797-1.822
		c-1.592-0.629-3.184-1.258-4.755-1.943c-1.581-0.654-3.147-1.355-4.708-2.07c-1.568-0.693-2.657-1.551-3.819-0.84
		c-0.573,0.363-1.151,0.723-1.743,1.064c-0.592,0.346-1.167,0.707-1.781,1.025c-1.225,0.643-2.391,1.348-3.665,1.936
		c-0.632,0.301-1.253,0.611-1.894,0.9c-0.658,0.271-1.292,0.57-1.975,0.814l-0.405-0.443l5.823-5.518l5.879-5.459l0.217-0.199
		l0.284,0.1l19.354,6.828l9.649,3.494l9.644,3.508l-0.43,0.043l4.372-2.543l4.423-2.457L108.368,159.108z"/>
	<path fill="#F1C09D" d="M136.871,162.11c0.524-0.055,1.009-0.045,1.509-0.061l1.438,0.055c0.477,0.023,0.923,0.098,1.387,0.143
		c0.454,0.061,0.928,0.09,1.367,0.174c0.895,0.146,4.445-0.521,6.005-1.24l2.364-1.008c0.79-0.33,1.572-0.682,2.37-0.99
		c1.595-0.621,3.171-1.293,4.78-1.871c1.606-0.586,3.198-1.217,4.821-1.756c1.619-0.553,3.227-1.137,4.863-1.641
		c1.629-0.523,3.258-1.047,4.906-1.518c1.639-0.496,3.294-0.949,4.952-1.391c1.652-0.459,3.333-0.838,5.002-1.254l2.975-0.738
		l1.271,1.594c0.844,1.059,1.701,2.102,2.512,3.197c0.412,0.539,0.821,1.082,1.215,1.643c0.395,0.559,0.806,1.1,1.178,1.682
		c0.747,1.164,1.553,2.264,2.251,3.48c0.354,0.604,0.72,1.195,1.063,1.809c0.329,0.631,0.682,1.236,0.984,1.895l-0.404,0.443
		l-6.011-5.314l-5.954-5.375l0.501,0.1l-19.289,7.016l-9.674,3.426l-9.678,3.414l-0.229,0.082l-0.201-0.123l-4.316-2.635
		l-4.266-2.721L136.871,162.11z"/>
	<path fill="#F9D662" stroke="#000000" stroke-width="2.5" stroke-linejoin="round" stroke-miterlimit="10" d="M107.839,155.791
		c-0.2,0.488-0.44,0.908-0.664,1.357l-0.733,1.238c-0.248,0.408-0.525,0.766-0.786,1.15c-0.27,0.371-0.521,0.773-0.805,1.121
		c-0.554,0.717-1.134,1.389-1.724,2.047c-0.6,0.641-1.206,1.27-1.838,1.854l-1.092,1.01l-2.713-0.641
		c-1.675-0.395-3.318-0.879-4.979-1.312l-2.466-0.725c-0.82-0.246-1.648-0.471-2.46-0.74c-1.626-0.531-3.271-1.014-4.882-1.588
		c-1.613-0.568-3.242-1.092-4.84-1.705c-1.601-0.602-3.213-1.172-4.797-1.822c-1.592-0.629-3.184-1.258-4.755-1.943
		c-1.581-0.654-3.147-1.355-4.708-2.07c-1.568-0.693-2.657-1.551-3.819-0.84c-0.573,0.363-1.151,0.723-1.743,1.064
		c-0.592,0.346-1.167,0.707-1.781,1.025c-1.225,0.643-2.391,1.348-3.665,1.936c-0.632,0.301-1.253,0.611-1.894,0.9
		c-0.658,0.271-1.292,0.57-1.975,0.814l-0.405-0.443l5.823-5.518l5.879-5.459l0.217-0.199l0.284,0.1l19.354,6.828l9.649,3.494
		l9.214,3.551l4.372-2.543l4.423-2.457L107.839,155.791z"/>
	<polygon fill="#C0E6FA" points="184.142,212.547 154.595,174.936 149.664,181.391 180.895,215.494 	"/>
	<polygon fill="#C0E6FA" points="96.07,214.676 66.523,177.065 61.594,183.521 92.824,217.623 	"/>
	<path fill="#F9D662" stroke="#000000" stroke-width="2.5" stroke-linejoin="round" stroke-miterlimit="10" d="M136.342,158.793
		c0.524-0.055,1.009-0.045,1.509-0.061l1.438,0.055c0.477,0.023,0.923,0.098,1.387,0.143c0.454,0.061,0.928,0.09,1.367,0.174
		c0.895,0.146,4.445-0.521,6.005-1.24l2.364-1.008c0.79-0.33,1.572-0.682,2.37-0.99c1.595-0.621,3.171-1.293,4.78-1.871
		c1.606-0.586,3.198-1.217,4.821-1.756c1.619-0.553,3.227-1.137,4.863-1.641c1.629-0.523,3.258-1.047,4.906-1.518
		c1.639-0.496,3.294-0.949,4.952-1.391c1.652-0.459,3.333-0.838,5.002-1.254l2.975-0.738l1.271,1.594
		c0.844,1.059,1.701,2.102,2.512,3.197c0.412,0.539,0.821,1.082,1.215,1.643c0.395,0.559,0.806,1.1,1.178,1.682
		c0.747,1.164,1.553,2.264,2.251,3.48c0.354,0.604,0.72,1.195,1.063,1.809c0.329,0.631,0.682,1.236,0.984,1.895l-0.404,0.443
		l-6.011-5.314l-5.954-5.375l-18.788,7.115l-9.674,3.426l-9.678,3.414l-0.229,0.082l-0.201-0.123l-4.316-2.635l-4.266-2.721
		L136.342,158.793z"/>
	<g>
		<path stroke="#000000" stroke-linecap="round" stroke-linejoin="round" stroke-miterlimit="10" d="M123.877,157.951
			c0,0-0.179-1.762-0.384-4.402c-0.108-1.32-0.239-2.859-0.347-4.51c-0.127-1.65-0.215-3.412-0.319-5.172
			c-0.068-0.881-0.121-1.76-0.205-2.627c-0.083-0.867-0.145-1.719-0.157-2.545c0.003-0.824,0.029-1.623,0.111-2.379
			c0.062-0.756,0.148-1.471,0.251-2.131c0.376-2.641,1.05-4.402,1.05-4.402h0.301c0,0,0.673,1.762,1.05,4.402
			c0.103,0.66,0.188,1.375,0.251,2.131c0.082,0.756,0.108,1.555,0.111,2.379c-0.013,0.826-0.074,1.678-0.157,2.545
			c-0.084,0.867-0.137,1.746-0.205,2.627c-0.104,1.76-0.192,3.521-0.319,5.172c-0.108,1.65-0.238,3.189-0.347,4.51
			c-0.205,2.641-0.384,4.402-0.384,4.402H123.877z"/>
		<path stroke="#000000" stroke-linecap="round" stroke-linejoin="round" stroke-miterlimit="10" d="M119.248,152.994
			c0,0-0.438-1.098-1.032-2.756c-0.304-0.828-0.661-1.793-1.013-2.834c-0.37-1.037-0.72-2.152-1.084-3.266
			c-0.349-1.117-0.86-2.197-1.127-3.258c-0.247-1.064-0.321-2.096-0.326-2.992c0.008-0.9,0.068-1.662,0.172-2.211
			c0.092-0.545,0.197-0.869,0.197-0.869l0.292-0.068c0,0,0.237,0.246,0.559,0.695c0.335,0.445,0.724,1.104,1.127,1.908
			c0.39,0.809,0.776,1.768,1.024,2.832c0.227,1.07,0.241,2.264,0.42,3.42c0.162,1.16,0.339,2.316,0.463,3.412
			c0.141,1.09,0.244,2.113,0.337,2.99c0.194,1.75,0.284,2.928,0.284,2.928L119.248,152.994z"/>
		<path stroke="#000000" stroke-linecap="round" stroke-linejoin="round" stroke-miterlimit="10" d="M128.975,152.926
			c0,0,0.089-1.178,0.284-2.928c0.093-0.877,0.196-1.9,0.337-2.99c0.124-1.096,0.301-2.252,0.463-3.412
			c0.179-1.156,0.193-2.35,0.42-3.42c0.248-1.064,0.635-2.023,1.024-2.832c0.403-0.805,0.792-1.463,1.127-1.908
			c0.322-0.449,0.559-0.695,0.559-0.695l0.292,0.068c0,0,0.105,0.324,0.197,0.869c0.104,0.549,0.164,1.311,0.172,2.211
			c-0.005,0.896-0.079,1.928-0.326,2.992c-0.267,1.061-0.778,2.141-1.127,3.258c-0.364,1.113-0.714,2.229-1.084,3.266
			c-0.353,1.041-0.709,2.006-1.013,2.834c-0.595,1.658-1.032,2.756-1.032,2.756L128.975,152.926z"/>
	</g>
	<line fill="none" stroke="#000000" stroke-width="2" stroke-miterlimit="10" x1="60.852" y1="182.264" x2="92.65" y2="217.166"/>
	<line fill="none" stroke="#000000" stroke-width="2" stroke-miterlimit="10" x1="68.521" y1="177.752" x2="96.07" y2="216.096"/>
	
		<line fill="none" stroke="#000000" stroke-width="2" stroke-miterlimit="10" x1="147.644" y1="180.695" x2="182.677" y2="216.559"/>
	
		<line fill="none" stroke="#000000" stroke-width="2" stroke-miterlimit="10" x1="155.615" y1="175.625" x2="186.267" y2="215.297"/>
	
		<path fill="#010101" stroke="#010101" stroke-width="2" stroke-linecap="round" stroke-linejoin="round" stroke-miterlimit="10" d="
		M59.32,123.529c0,0,0.383-0.363,1.179-0.957c0.392-0.305,0.89-0.662,1.491-1.057c0.588-0.422,1.303-0.834,2.102-1.309
		c0.787-0.494,1.715-0.934,2.697-1.473c0.992-0.516,2.1-1.004,3.267-1.564c1.194-0.496,2.465-1.027,3.804-1.584
		c1.369-0.482,2.809-0.99,4.311-1.52c1.525-0.457,3.115-0.934,4.76-1.428c1.667-0.41,3.391-0.836,5.162-1.271
		c1.782-0.389,3.625-0.73,5.504-1.111c1.877-0.387,3.823-0.602,5.789-0.916c1.965-0.328,3.979-0.51,6.014-0.73
		c1.019-0.107,2.043-0.217,3.072-0.326c1.029-0.115,2.069-0.139,3.11-0.215c2.085-0.117,4.185-0.27,6.294-0.359
		c2.111-0.045,4.231-0.092,6.352-0.137l1.59-0.025l0.812-0.008l0.791,0.016c1.055,0.023,2.107,0.047,3.159,0.068
		c2.106,0.07,4.188,0.037,6.282,0.189c2.088,0.133,4.16,0.266,6.209,0.396c2.041,0.172,4.049,0.43,6.027,0.635
		c1.982,0.182,3.914,0.523,5.805,0.822c0.945,0.154,1.881,0.307,2.805,0.459c0.918,0.193,1.822,0.383,2.717,0.572
		c0.893,0.188,1.773,0.373,2.641,0.557c0.865,0.195,1.707,0.439,2.537,0.658c0.83,0.225,1.645,0.443,2.445,0.66
		c0.801,0.215,1.566,0.5,2.326,0.74c0.758,0.248,1.498,0.492,2.223,0.73c0.721,0.248,1.41,0.539,2.086,0.805
		c0.674,0.271,1.332,0.533,1.969,0.791c0.623,0.293,1.229,0.578,1.816,0.854c2.354,1.08,4.293,2.256,5.85,3.262
		c1.541,1.041,2.666,1.977,3.377,2.67c0.363,0.338,0.623,0.617,0.791,0.811c0.176,0.188,0.25,0.295,0.25,0.295
		s-0.082-0.102-0.27-0.275c-0.182-0.182-0.459-0.439-0.844-0.75c-0.367-0.33-0.875-0.67-1.447-1.098
		c-0.594-0.396-1.281-0.846-2.064-1.324c-1.596-0.912-3.566-1.969-5.945-2.91c-0.592-0.24-1.203-0.49-1.832-0.746
		c-0.643-0.219-1.305-0.443-1.984-0.674c-0.682-0.223-1.367-0.49-2.088-0.705c-0.725-0.207-1.465-0.42-2.221-0.637
		c-0.76-0.207-1.521-0.459-2.32-0.641c-0.797-0.184-1.609-0.369-2.438-0.559c-0.828-0.18-1.66-0.404-2.521-0.572
		c-0.861-0.156-1.736-0.314-2.625-0.477c-0.885-0.162-1.785-0.326-2.695-0.49c-0.916-0.125-1.846-0.25-2.783-0.377
		c-1.881-0.232-3.787-0.561-5.754-0.701c-1.963-0.17-3.953-0.393-5.973-0.527c-2.02-0.107-4.064-0.215-6.125-0.324
		c-2.055-0.139-4.166-0.096-6.264-0.152c-1.051-0.018-2.105-0.035-3.159-0.051l-0.791-0.014l-0.77,0.014l-1.576,0.033
		c-2.103,0.033-4.204,0.066-6.299,0.1c-2.091,0.078-4.173,0.217-6.238,0.322c-2.069,0.084-4.11,0.279-6.128,0.465
		c-2.02,0.184-4.018,0.33-5.965,0.621c-1.949,0.275-3.879,0.473-5.745,0.793c-1.865,0.326-3.698,0.613-5.472,0.949
		c-1.764,0.381-3.479,0.75-5.139,1.107c-1.645,0.426-3.232,0.836-4.757,1.23c-1.505,0.463-2.948,0.906-4.321,1.326
		c-1.353,0.482-2.636,0.939-3.842,1.369c-1.181,0.492-2.305,0.916-3.314,1.375c-0.997,0.48-1.943,0.869-2.748,1.316
		c-1.633,0.848-2.897,1.559-3.716,2.113C59.729,123.193,59.32,123.529,59.32,123.529z"/>
	<ellipse opacity="0.18" fill="#00BAED" cx="124.258" cy="251.951" rx="7.755" ry="7.541"/>
	<ellipse cx="147.644" cy="283.625" rx="3.307" ry="3.121"/>
	<path fill="none" stroke="#000000" stroke-width="2.5" stroke-linecap="round" stroke-linejoin="round" stroke-miterlimit="10" d="
		M103.174,31.701c0,0-11.5,13.5,5,26.332"/>
	<path fill="none" stroke="#000000" stroke-width="2.5" stroke-linecap="round" stroke-linejoin="round" stroke-miterlimit="10" d="
		M142.174,32.533c0,0-9.001-6.498-14.334,3.168s8.334,21.166,12.334,22.332"/>
	<path fill="none" stroke="#000000" stroke-width="2.5" stroke-linecap="round" stroke-linejoin="round" stroke-miterlimit="10" d="
		M135.84,36.201c0,0-3.666,1.527-2.166,8.014s13.75,14.402,18.75,16.068"/>
	<path fill="none" stroke="#000000" stroke-width="2.5" stroke-linecap="round" stroke-linejoin="round" stroke-miterlimit="10" d="
		M110.007,30.396c0,0-9.167,6.221-4.667,17.846"/>
	<path fill="none" stroke="#000000" stroke-width="2.5" stroke-linecap="round" stroke-linejoin="round" stroke-miterlimit="10" d="
		M88.007,26.033c0,0-9.001,3-10.667,15.834s7.167,23,7.167,23"/>
	<path fill="none" stroke="#000000" stroke-width="2.5" stroke-linecap="round" stroke-linejoin="round" stroke-miterlimit="10" d="
		M72.119,35.256c0,0-5.112,15.611,4.388,27.445"/>
	<path fill="none" stroke="#000000" stroke-width="2.5" stroke-linecap="round" stroke-linejoin="round" stroke-miterlimit="10" d="
		M65.007,79.367c0,0-6.834-5.166-8.167-13.666s2.334-11.334,2.334-11.334"/>
	<path fill="none" stroke="#000000" stroke-width="2.5" stroke-linecap="round" stroke-linejoin="round" stroke-miterlimit="10" d="
		M62.007,86.367c0,0-6.167-4.666-8.167-8.166"/>
	<path fill="none" stroke="#000000" stroke-width="2.5" stroke-linecap="round" stroke-linejoin="round" stroke-miterlimit="10" d="
		M194.674,86.701c0,0-14.833-17.334-19.5-21c-4.667-3.668-3.251-10.084,1.249-10.25c4.5-0.168,10.584,7.082,10.584,7.082"/>
	<path fill="none" stroke="#000000" stroke-width="2.5" stroke-linecap="round" stroke-linejoin="round" stroke-miterlimit="10" d="
		M172.289,51.033c0,0-5.949,0.002-6.449,4.668s5.334,12.166,5.334,12.166"/>
	<path fill="#F1C09D" stroke="#000000" stroke-width="3" stroke-linejoin="round" stroke-miterlimit="10" d="M124.424,266.781
		c2.797-0.07,23.027-0.627,28.918-2.41c-12.833-1.916-25.75-11.834-25.75-11.834l-3.334,3.73l-3.334-3.729
		c0,0-12.917,9.916-25.75,11.832c5.891,1.783,26.121,2.34,28.918,2.41v0.008c0,0,0.067-0.002,0.166-0.004
		c0.099,0.002,0.166,0.004,0.166,0.004V266.781z"/>
	<path fill="#F1C099" stroke="#000000" stroke-width="3" stroke-linejoin="round" stroke-miterlimit="10" d="M119.396,243.955
		c0,0-6.584,15.166,4.916,15.166s4.665-15.166,4.665-15.166"/>
	<path fill="none" stroke="#000000" stroke-width="3" stroke-linecap="round" stroke-linejoin="round" stroke-miterlimit="10" d="
		M98.55,264.625c6.346,0,11.553,14.879,25.953,14.879s20.277-14.879,25.461-14.879"/>
	<path fill="none" stroke="#000000" stroke-width="3" stroke-linecap="round" stroke-linejoin="round" stroke-miterlimit="10" d="
		M108.183,233.678c5.987,0,5.152,11.277,16.292,11.277c11.139,0,10.143-11.277,16.293-11.277"/>
	<path fill="none" stroke="#000000" stroke-width="3" stroke-linecap="round" stroke-linejoin="round" stroke-miterlimit="10" d="
		M105.93,225.844c-0.666,2-6.334,6.666-3.5,10.498c2.834,3.834,7.417,1.918,7.417,1.918"/>
	<path fill="none" stroke="#000000" stroke-width="3" stroke-linecap="round" stroke-linejoin="round" stroke-miterlimit="10" d="
		M142.585,225.844c0.666,2,6.334,6.666,3.5,10.498c-2.834,3.834-7.417,1.918-7.417,1.918"/>
	<path fill="none" stroke="#000000" stroke-width="3" stroke-linecap="round" stroke-linejoin="round" stroke-miterlimit="10" d="
		M91.444,264c0,0,16.336,3.248,32.098,3.248S159.069,264,159.069,264"/>
	<path fill="none" stroke="#000000" stroke-width="3" stroke-linecap="round" stroke-linejoin="round" stroke-miterlimit="10" d="
		M86.683,250.77c0,0,5.125,8.5,3.75,15.062s-6.625,9.625-6.625,9.625"/>
	<path fill="#5D2A2B" stroke="#000000" stroke-width="2" stroke-miterlimit="10" d="M196.141,186.691
		c-4.161-11.848-15.453-20.367-28.703-20.367c-11.076,0-20.781,5.955-26.101,14.828c-3.054-3.143-8.547-7.158-16.683-7.158
		c-8.029,0-13.482,3.912-16.559,7.033c-5.334-8.803-15.001-14.703-26.025-14.703c-13.251,0-24.543,8.52-28.703,20.367h-17.85v10.051
		h16.135c0,16.771,13.646,30.416,30.418,30.416c13.502,0,24.971-8.844,28.932-21.041c0.049-0.094,0.103-0.184,0.141-0.283
		l3.186-8.539c-2.446-1.352-3.957-3.172-3.957-5.182c0-1.043,5.525-10.713,14.283-10.713c8.759,0,14.481,9.664,14.481,10.713
		c0,2.01-1.511,3.83-3.957,5.182l3.187,8.539c0.038,0.102,0.092,0.191,0.141,0.287c3.964,12.195,15.432,21.037,28.932,21.037
		c16.771,0,30.417-13.645,30.417-30.416h15.143v-10.051H196.141z M82.07,219.752c-12.689,0-23.012-10.322-23.012-23.01
		c0-12.689,10.322-23.012,23.012-23.012c12.688,0,23.012,10.322,23.012,23.012C105.082,209.43,94.759,219.752,82.07,219.752z
		 M167.438,219.752c-12.688,0-23.012-10.322-23.012-23.01c0-12.689,10.323-23.012,23.012-23.012s23.012,10.322,23.012,23.012
		C190.449,209.43,180.126,219.752,167.438,219.752z"/>
	
		<path fill="#873E27" stroke="#000000" stroke-width="3" stroke-linecap="round" stroke-linejoin="round" stroke-miterlimit="10" d="
		M153.342,232.408c0,0,6.509,13.25,6.75,24"/>
	<path fill="none" stroke="#010101" stroke-width="3" stroke-linecap="round" stroke-linejoin="round" stroke-miterlimit="10" d="
		M90.646,96.242c0,0,10.61-4.209,35.176-4.209s31.588,4.209,31.588,4.209"/>
	<g>
		<path fill="#010101" d="M40.277,139.686c0,0,5.172-3.268,10.898-4.945"/>
		<path fill="#010101" d="M40.277,139.686c0,0,0.094-0.208,0.289-0.519c0.188-0.319,0.491-0.725,0.904-1.164
			c0.412-0.437,0.928-0.905,1.518-1.348c0.603-0.404,1.277-0.783,1.975-1.113c0.709-0.307,1.403-0.637,2.145-0.752
			c0.725-0.146,1.418-0.221,2.02-0.237c0.604-0.013,1.115,0.024,1.477,0.077c0.359,0.048,0.572,0.111,0.572,0.111
			s-0.141,0.189-0.397,0.459c-0.256,0.274-0.628,0.628-1.082,0.996c-0.456,0.364-0.997,0.732-1.595,1.062
			c-0.303,0.157-0.61,0.327-0.924,0.511c-0.311,0.183-0.64,0.339-0.966,0.5c-0.661,0.304-1.346,0.559-2.017,0.749
			c-0.647,0.225-1.283,0.386-1.861,0.485c-0.578,0.09-1.092,0.143-1.461,0.172C40.506,139.701,40.277,139.686,40.277,139.686z"/>
	</g>
	<g>
		<path fill="#010101" d="M209.204,139.686c0,0-5.174-3.268-10.9-4.945"/>
		<path fill="#010101" d="M209.204,139.686c0,0-0.228,0.015-0.597-0.011c-0.367-0.029-0.881-0.081-1.461-0.172
			c-0.576-0.1-1.213-0.26-1.86-0.485c-0.671-0.19-1.356-0.444-2.018-0.748c-0.327-0.162-0.655-0.318-0.967-0.5
			c-0.312-0.184-0.62-0.354-0.923-0.511c-0.598-0.33-1.139-0.699-1.596-1.062c-0.454-0.368-0.826-0.722-1.082-0.996
			c-0.258-0.27-0.397-0.459-0.397-0.459s0.212-0.062,0.573-0.111c0.361-0.052,0.871-0.089,1.476-0.077
			c0.603,0.017,1.296,0.092,2.021,0.237c0.74,0.116,1.435,0.446,2.145,0.752c0.697,0.33,1.372,0.709,1.975,1.113
			c0.59,0.443,1.105,0.911,1.518,1.348c0.414,0.438,0.717,0.845,0.905,1.164C209.11,139.478,209.204,139.686,209.204,139.686z"/>
	</g>
	<g>
		<defs>
			<path id="SVGID_1_" d="M195.91,186.745c-4.161-11.848-15.453-20.367-28.703-20.367c-11.076,0-20.781,5.955-26.101,14.828
				c-3.054-3.143-8.547-7.158-16.683-7.158c-8.029,0-13.482,3.912-16.559,7.033c-5.334-8.803-15.001-14.703-26.025-14.703
				c-13.251,0-24.543,8.52-28.703,20.367h-17.85v10.051h16.135c0,16.771,13.646,30.416,30.418,30.416
				c13.502,0,24.971-8.844,28.932-21.041c0.049-0.094,0.103-0.184,0.141-0.283l3.186-8.539c-2.446-1.352-3.957-3.172-3.957-5.182
				c0-1.043,5.525-10.713,14.283-10.713c8.759,0,14.481,9.664,14.481,10.713c0,2.01-1.511,3.83-3.957,5.182l3.187,8.539
				c0.038,0.102,0.092,0.191,0.141,0.287c3.964,12.195,15.432,21.037,28.932,21.037c16.771,0,30.417-13.645,30.417-30.416h15.143
				v-10.051H195.91z M81.84,219.806c-12.689,0-23.012-10.322-23.012-23.01c0-12.689,10.322-23.012,23.012-23.012
				c12.688,0,23.012,10.322,23.012,23.012C104.852,209.483,94.528,219.806,81.84,219.806z M167.207,219.806
				c-12.688,0-23.012-10.322-23.012-23.01c0-12.689,10.323-23.012,23.012-23.012s23.012,10.322,23.012,23.012
				C190.219,209.483,179.896,219.806,167.207,219.806z"/>
		</defs>
		<clipPath id="SVGID_2_">
			<use xlink:href="#SVGID_1_"  overflow="visible"/>
		</clipPath>
		<path clip-path="url(#SVGID_2_)" fill="#944A38" d="M29.577,218.59c0,0,20-38,20-48s10.25-13.5,10.25-13.5s9,4.5,2.5,11
			s-5.75,12.75-5.25,15.25s5.75,12-0.25,19s-13.25,25-15,16.25s8.5-19,8.5-19s2.607-7.5-3.196-4.75s-13.633,29.244-11.844,32.372
			c1.79,3.128-8.46,9.128-8.46,4.128S29.577,218.59,29.577,218.59z"/>
		<path clip-path="url(#SVGID_2_)" fill="#944A38" d="M54.827,220.211c0,0,20-38,20-48s10.25-13.5,10.25-13.5s9,4.5,2.5,11
			s-5.75,12.75-5.25,15.25s5.75,12-0.25,19s-13.25,25-15,16.25s8.5-19,8.5-19s2.607-7.5-3.196-4.75s-13.633,29.244-11.844,32.372
			c1.79,3.128-8.46,9.128-8.46,4.128S54.827,220.211,54.827,220.211z"/>
		<path clip-path="url(#SVGID_2_)" fill="#944A38" d="M98.827,189.794c0,0,20-38,20-48s10.25-13.5,10.25-13.5s9,4.5,2.5,11
			s-5.75,12.75-5.25,15.25s5.75,12-0.25,19s-13.25,25-15,16.25s8.5-19,8.5-19s2.607-7.5-3.196-4.75s-13.633,29.244-11.844,32.372
			c1.79,3.128-8.46,9.128-8.46,4.128S98.827,189.794,98.827,189.794z"/>
		<path clip-path="url(#SVGID_2_)" fill="#944A38" d="M60.969,267.794c0,0,20-38,20-48s10.25-13.5,10.25-13.5s9,4.5,2.5,11
			s-5.75,12.75-5.25,15.25s5.75,12-0.25,19s-13.25,25-15,16.25s8.5-19,8.5-19s2.607-7.5-3.195-4.75
			c-5.805,2.75-13.633,29.244-11.844,32.372c1.789,3.129-8.461,9.129-8.461,4.129C58.219,275.544,60.969,267.794,60.969,267.794z"/>
		<path clip-path="url(#SVGID_2_)" fill="#944A38" d="M131.219,220.211c0,0,20.001-38,20.001-48s10.25-13.5,10.25-13.5s9,4.5,2.5,11
			s-5.75,12.75-5.25,15.25s5.75,12-0.25,19s-13.251,25-15.001,16.25s8.501-19,8.501-19s2.607-7.5-3.196-4.75
			c-5.805,2.75-13.633,29.244-11.844,32.372s-8.461,9.128-8.461,4.128S131.219,220.211,131.219,220.211z"/>
		<path clip-path="url(#SVGID_2_)" fill="#944A38" d="M172.72,227.878c0,0,20-38,20-48s10.25-13.5,10.25-13.5s9,4.5,2.5,11
			s-5.75,12.75-5.25,15.25s5.75,12-0.25,19s-13.25,25-15,16.25s8.5-19,8.5-19s2.607-7.5-3.197-4.75
			c-5.803,2.75-13.633,29.244-11.843,32.372s-8.46,9.128-8.46,4.128S172.72,227.878,172.72,227.878z"/>
	</g>
	<ellipse fill="#00A5BB" cx="81.675" cy="196.741" rx="22.937" ry="23.441"/>
	<ellipse fill="#00A5BB" cx="166.842" cy="196.741" rx="22.937" ry="23.441"/>
	<polygon fill="#C0E6FA" points="94.045,217.062 66.523,179.452 61.594,185.907 90.339,218.241 	"/>
	<polygon fill="#C0E6FA" points="179.324,217.062 151.803,179.452 146.873,185.907 175.618,218.241 	"/>
	<path fill="none" stroke="#000000" stroke-width="3.5" stroke-miterlimit="10" d="M195.91,186.745
		c-4.161-11.848-15.453-20.367-28.703-20.367c-11.076,0-20.781,5.955-26.101,14.828c-3.054-3.143-8.547-7.158-16.683-7.158
		c-8.029,0-13.482,3.912-16.559,7.033c-5.334-8.803-15.001-14.703-26.025-14.703c-13.251,0-24.543,8.52-28.703,20.367h-17.85v10.051
		h16.135c0,16.771,13.646,30.416,30.418,30.416c13.502,0,24.971-8.844,28.932-21.041c0.049-0.094,0.103-0.184,0.141-0.283
		l3.186-8.539c-2.446-1.352-3.957-3.172-3.957-5.182c0-1.043,5.525-10.713,14.283-10.713c8.759,0,14.481,9.664,14.481,10.713
		c0,2.01-1.511,3.83-3.957,5.182l3.187,8.539c0.038,0.102,0.092,0.191,0.141,0.287c3.964,12.195,15.432,21.037,28.932,21.037
		c16.771,0,30.417-13.645,30.417-30.416h15.143v-10.051H195.91z M81.84,219.806c-12.689,0-23.012-10.322-23.012-23.01
		c0-12.689,10.322-23.012,23.012-23.012c12.688,0,23.012,10.322,23.012,23.012C104.852,209.483,94.528,219.806,81.84,219.806z
		 M167.207,219.806c-12.688,0-23.012-10.322-23.012-23.01c0-12.689,10.323-23.012,23.012-23.012s23.012,10.322,23.012,23.012
		C190.219,209.483,179.896,219.806,167.207,219.806z"/>
	<line fill="none" stroke="#000000" stroke-width="2" stroke-miterlimit="10" x1="60.852" y1="185.65" x2="90.339" y2="218.241"/>
	<line fill="none" stroke="#000000" stroke-width="2" stroke-miterlimit="10" x1="66.964" y1="178.822" x2="94.514" y2="217.166"/>
	<line fill="none" stroke="#000000" stroke-width="2" stroke-miterlimit="10" x1="146.268" y1="185.65" x2="175.755" y2="218.241"/>
	<line fill="none" stroke="#000000" stroke-width="2" stroke-miterlimit="10" x1="152.38" y1="178.822" x2="179.93" y2="217.166"/>
</g>
</svg>
