<?xml version="1.0" encoding="utf-8"?>
<!-- Generator: Adobe Illustrator 16.0.4, SVG Export Plug-In . SVG Version: 6.00 Build 0)  -->
<!DOCTYPE svg PUBLIC "-//W3C//DTD SVG 1.1//EN" "http://www.w3.org/Graphics/SVG/1.1/DTD/svg11.dtd">
<svg version="1.1" id="Layer_1" xmlns="http://www.w3.org/2000/svg" xmlns:xlink="http://www.w3.org/1999/xlink" x="0px" y="0px"
	 width="290.708px" height="261px" viewBox="0 0 290.708 261" enable-background="new 0 0 290.708 261" xml:space="preserve">
<path d="M255.823,74.811c-7.373,3.27-15.295,5.48-23.613,6.474c8.489-5.088,15.007-13.145,18.077-22.746
	c-7.942,4.711-16.741,8.133-26.106,9.977c-7.499-7.991-18.185-12.983-30.008-12.983c-22.707,0-41.114,18.408-41.114,41.111
	c0,3.223,0.364,6.36,1.064,9.369c-34.168-1.714-64.461-18.082-84.739-42.955c-3.539,6.072-5.566,13.134-5.566,20.668
	c0,14.263,7.258,26.847,18.29,34.22c-6.739-0.213-13.079-2.063-18.622-5.142c-0.003,0.172-0.004,0.343-0.004,0.517
	c0,19.92,14.171,36.537,32.979,40.313c-3.45,0.939-7.083,1.441-10.832,1.441c-2.649,0-5.225-0.257-7.735-0.737
	c5.232,16.333,20.415,28.22,38.405,28.552c-14.071,11.026-31.797,17.599-51.059,17.599c-3.318,0-6.591-0.195-9.807-0.574
	c18.194,11.665,39.804,18.471,63.021,18.471c75.621,0,116.973-62.646,116.973-116.974c0-1.782-0.04-3.555-0.119-5.318
	C243.341,90.296,250.311,83.055,255.823,74.811z"/>
</svg>
